<mxfile host="app.diagrams.net" modified="2023-12-08T20:55:57.310Z" agent="Mozilla/5.0 (Windows NT 10.0; Win64; x64; rv:120.0) Gecko/20100101 Firefox/120.0" version="22.1.7" etag="fFO2oeZ1BrWiChngNY7h" type="github">
  <diagram name="Page-1" id="Ozt73fOS8aO524kWZ1pD">
    <mxGraphModel>
      <root>
        <mxCell id="0" />
        <mxCell id="1" parent="0" />
      </root>
    </mxGraphModel>
  </diagram>
</mxfile>
